<svg width="100%" height="100%" viewBox="0 0 600 164" fill="none" xmlns="http://www.w3.org/2000/svg">
<path d="M51.2 0.5H548.8C557.768 0.5 564.469 0.500267 569.784 0.859969C575.095 1.21943 578.984 1.93606 582.333 3.34953C588.27 5.85508 593.079 9.84565 596.086 14.734C597.775 17.4792 598.634 20.6684 599.066 25.0487C599.499 29.4383 599.5 34.976 599.5 42.4081V77.3586H374.023H373.97C363.61 77.3586 358.37 77.3586 353.31 78.1293C348.82 78.8133 344.445 79.9466 340.281 81.5046C335.59 83.2604 331.279 85.7357 322.769 90.6232L322.722 90.6501L218.78 150.341C210.212 155.262 205.975 157.694 201.368 159.417C197.271 160.951 192.963 162.067 188.539 162.741C183.563 163.499 178.402 163.5 167.977 163.5H0.5V42.4081C0.5 34.976 0.500565 29.4383 0.933559 25.0487C1.36564 20.6684 2.22489 17.4792 3.91366 14.734C6.92077 9.84565 11.7298 5.85508 17.6667 3.34953C21.0159 1.93606 24.9046 1.21943 30.2162 0.859969C35.5315 0.500267 42.2323 0.5 51.2 0.5Z" fill="#EE2B34" stroke="black" preserveAspectRatio="xMidYMid meet"/>
</svg>
