<svg width="100%" height="100%" viewBox="0 0 600 908" fill="none" xmlns="http://www.w3.org/2000/svg">
<mask id="path-1-inside-1_8_18" fill="white">
<path d="M0 164.141V875.141C0 892.814 14.3269 907.141 32 907.141H568C585.673 907.141 600 892.814 600 875.141V78H374.023C363.613 78 358.408 78 353.386 78.765C348.928 79.444 344.587 80.5686 340.457 82.1143C335.803 83.8558 331.526 86.3122 322.971 91.2251L219.029 150.916C210.474 155.829 206.197 158.286 201.543 160.027C197.413 161.573 193.072 162.697 188.614 163.376C183.592 164.141 178.387 164.141 167.977 164.141H0Z"/>
<path d="M42 181.207C28.7452 181.207 18 191.67 18 204.925C18 315.027 18 763.391 18 861.152C18 874.407 28.7452 885.141 42 885.141H558C571.255 885.141 582 874.681 582 861.426C582 755.414 582 244.867 582 123.912C582 110.657 571.255 100.141 558 100.141H369.582C359.796 100.141 354.903 100.141 350.183 100.861C345.993 101.5 341.912 102.559 338.029 104.013C333.655 105.652 329.634 107.964 321.593 112.587L223.887 168.761C215.846 173.385 211.825 175.696 207.451 177.335C203.568 178.79 199.487 179.848 195.297 180.487C190.577 181.207 185.684 181.207 175.898 181.207H42Z"/>
<path d="M0 51.2C0 33.2783 0 24.3175 3.48779 17.4723C6.55574 11.4511 11.4511 6.55574 17.4723 3.48779C24.3175 1.43051e-06 33.2783 0 51.2 0H548.8C566.722 0 575.683 1.43051e-06 582.528 3.48779C588.549 6.55574 593.444 11.4511 596.512 17.4723C600 24.3175 600 33.2783 600 51.2V77.8586H369.897C360.998 77.8586 356.548 77.8586 352.214 78.542C348.366 79.1488 344.591 80.1555 340.952 81.5457C336.853 83.1115 332.994 85.3275 325.277 89.7595L216.723 152.099C209.006 156.531 205.147 158.747 201.048 160.313C197.409 161.703 193.634 162.71 189.786 163.317C185.452 164 181.002 164 172.103 164H0V51.2Z"/>
</mask>
<path d="M0 164.141V875.141C0 892.814 14.3269 907.141 32 907.141H568C585.673 907.141 600 892.814 600 875.141V78H374.023C363.613 78 358.408 78 353.386 78.765C348.928 79.444 344.587 80.5686 340.457 82.1143C335.803 83.8558 331.526 86.3122 322.971 91.2251L219.029 150.916C210.474 155.829 206.197 158.286 201.543 160.027C197.413 161.573 193.072 162.697 188.614 163.376C183.592 164.141 178.387 164.141 167.977 164.141H0Z" fill="#EE2B34"/>
<path d="M42 181.207C28.7452 181.207 18 191.67 18 204.925C18 315.027 18 763.391 18 861.152C18 874.407 28.7452 885.141 42 885.141H558C571.255 885.141 582 874.681 582 861.426C582 755.414 582 244.867 582 123.912C582 110.657 571.255 100.141 558 100.141H369.582C359.796 100.141 354.903 100.141 350.183 100.861C345.993 101.5 341.912 102.559 338.029 104.013C333.655 105.652 329.634 107.964 321.593 112.587L223.887 168.761C215.846 173.385 211.825 175.696 207.451 177.335C203.568 178.79 199.487 179.848 195.297 180.487C190.577 181.207 185.684 181.207 175.898 181.207H42Z" fill="#EE2B34"/>
<path d="M0 51.2C0 33.2783 0 24.3175 3.48779 17.4723C6.55574 11.4511 11.4511 6.55574 17.4723 3.48779C24.3175 1.43051e-06 33.2783 0 51.2 0H548.8C566.722 0 575.683 1.43051e-06 582.528 3.48779C588.549 6.55574 593.444 11.4511 596.512 17.4723C600 24.3175 600 33.2783 600 51.2V77.8586H369.897C360.998 77.8586 356.548 77.8586 352.214 78.542C348.366 79.1488 344.591 80.1555 340.952 81.5457C336.853 83.1115 332.994 85.3275 325.277 89.7595L216.723 152.099C209.006 156.531 205.147 158.747 201.048 160.313C197.409 161.703 193.634 162.71 189.786 163.317C185.452 164 181.002 164 172.103 164H0V51.2Z" fill="#EE2B34"/>
<path d="M0 164.141V163.141H-1V164.141H0ZM600 78H601V77H600V78ZM353.386 78.765L353.235 77.7764L353.235 77.7764L353.386 78.765ZM340.457 82.1143L340.807 83.0508L340.807 83.0508L340.457 82.1143ZM322.971 91.2251L323.469 92.0923L323.469 92.0923L322.971 91.2251ZM219.029 150.916L218.531 150.049L218.531 150.049L219.029 150.916ZM201.543 160.027L201.894 160.964L201.894 160.964L201.543 160.027ZM188.614 163.376L188.464 162.388L188.464 162.388L188.614 163.376ZM350.183 100.861L350.032 99.8728L350.032 99.8728L350.183 100.861ZM338.029 104.013L338.38 104.95L338.38 104.95L338.029 104.013ZM321.593 112.587L322.091 113.454L322.091 113.454L321.593 112.587ZM223.887 168.761L223.389 167.894L223.389 167.894L223.887 168.761ZM207.451 177.335L207.801 178.272L207.802 178.272L207.451 177.335ZM195.297 180.487L195.147 179.499L195.147 179.499L195.297 180.487ZM600 77.8586V78.8586H601V77.8586H600ZM0 164H-1V165H0V164ZM189.786 163.317L189.942 164.304L189.786 163.317ZM216.723 152.099L216.225 151.232L216.225 151.232L216.723 152.099ZM201.048 160.313L200.691 159.379L201.048 160.313ZM582.528 3.48779L582.074 4.3788L582.528 3.48779ZM596.512 17.4723L595.621 17.9263L596.512 17.4723ZM352.214 78.542L352.058 77.5542L352.214 78.542ZM325.277 89.7595L325.775 90.6267L325.775 90.6267L325.277 89.7595ZM340.952 81.5457L341.309 82.4799L340.952 81.5457ZM17.4723 3.48779L17.9263 4.3788L17.4723 3.48779ZM3.48779 17.4723L4.3788 17.9263L3.48779 17.4723ZM1 875.141V164.141H-1V875.141H1ZM32 906.141C14.8792 906.141 1 892.262 1 875.141H-1C-1 893.367 13.7746 908.141 32 908.141V906.141ZM568 906.141H32V908.141H568V906.141ZM599 875.141C599 892.262 585.121 906.141 568 906.141V908.141C586.225 908.141 601 893.367 601 875.141H599ZM599 78V875.141H601V78H599ZM600 77H374.023V79H600V77ZM374.023 77C363.643 77 358.349 76.9974 353.235 77.7764L353.536 79.7536C358.466 79.0026 363.583 79 374.023 79V77ZM353.235 77.7764C348.711 78.4655 344.302 79.6073 340.106 81.1777L340.807 83.0508C344.871 81.5299 349.146 80.4224 353.536 79.7536L353.235 77.7764ZM340.106 81.1777C335.359 82.9543 331.001 85.4602 322.473 90.358L323.469 92.0923C332.05 87.1643 336.248 84.7572 340.807 83.0508L340.106 81.1777ZM322.473 90.358L218.531 150.049L219.527 151.783L323.469 92.0923L322.473 90.358ZM218.531 150.049C209.95 154.977 205.752 157.384 201.193 159.091L201.894 160.964C206.641 159.187 210.999 156.681 219.527 151.783L218.531 150.049ZM201.193 159.091C197.129 160.611 192.854 161.719 188.464 162.388L188.765 164.365C193.289 163.676 197.698 162.534 201.894 160.964L201.193 159.091ZM188.464 162.388C183.534 163.139 178.417 163.141 167.977 163.141V165.141C178.357 165.141 183.651 165.144 188.765 164.365L188.464 162.388ZM167.977 163.141H0V165.141H167.977V163.141ZM558 884.141H42V886.141H558V884.141ZM558 99.1414H369.582V101.141H558V99.1414ZM369.582 99.1414C359.826 99.1414 354.845 99.1388 350.032 99.8728L350.333 101.85C354.962 101.144 359.766 101.141 369.582 101.141V99.1414ZM350.032 99.8728C345.775 100.522 341.627 101.597 337.679 103.077L338.38 104.95C342.196 103.52 346.21 102.479 350.333 101.85L350.032 99.8728ZM337.679 103.077C333.21 104.751 329.109 107.112 321.094 111.72L322.091 113.454C330.159 108.816 334.1 106.553 338.38 104.95L337.679 103.077ZM321.094 111.72L223.389 167.894L224.386 169.628L322.091 113.454L321.094 111.72ZM223.389 167.894C215.321 172.533 211.38 174.795 207.1 176.399L207.802 178.272C212.27 176.598 216.371 174.236 224.386 169.628L223.389 167.894ZM207.1 176.399C203.284 177.829 199.27 178.87 195.147 179.499L195.448 181.476C199.705 180.827 203.853 179.751 207.801 178.272L207.1 176.399ZM195.147 179.499C190.518 180.205 185.714 180.207 175.898 180.207V182.207C185.654 182.207 190.635 182.21 195.448 181.476L195.147 179.499ZM175.898 180.207H42V182.207H175.898V180.207ZM19 861.152C19 812.272 19 675.74 19 537.666C19 537.127 19 536.588 19 536.048C19 535.509 19 534.97 19 534.43C19 533.891 19 533.351 19 532.812C19 532.272 19 531.733 19 531.193C19 530.654 19 530.115 19 529.575C19 529.036 19 528.496 19 527.957C19 527.417 19 526.878 19 526.338C19 525.799 19 525.26 19 524.72C19 524.181 19 523.641 19 523.102C19 522.563 19 522.023 19 521.484C19 520.945 19 520.405 19 519.866C19 519.327 19 518.788 19 518.249C19 517.709 19 517.17 19 516.631C19 516.092 19 515.553 19 515.014C19 514.475 19 513.936 19 513.397C19 512.858 19 512.319 19 511.781C19 511.242 19 510.703 19 510.164C19 509.626 19 509.087 19 508.549C19 508.01 19 507.472 19 506.933C19 506.395 19 505.856 19 505.318C19 504.78 19 504.242 19 503.704C19 503.166 19 502.628 19 502.09C19 501.552 19 501.014 19 500.476C19 499.939 19 499.401 19 498.863C19 498.326 19 497.789 19 497.251C19 496.714 19 496.177 19 495.64C19 495.102 19 494.565 19 494.029C19 493.492 19 492.955 19 492.418C19 491.882 19 491.345 19 490.809C19 490.272 19 489.736 19 489.2C19 488.664 19 488.128 19 487.592C19 487.056 19 486.52 19 485.985C19 485.449 19 484.914 19 484.378C19 483.843 19 483.308 19 482.773C19 482.238 19 481.703 19 481.168C19 480.633 19 480.099 19 479.565C19 479.03 19 478.496 19 477.962C19 477.428 19 476.894 19 476.36C19 475.826 19 475.293 19 474.759C19 474.226 19 473.693 19 473.16C19 472.627 19 472.094 19 471.561C19 471.029 19 470.496 19 469.964C19 469.432 19 468.9 19 468.368C19 467.836 19 467.304 19 466.773C19 466.241 19 465.71 19 465.179C19 464.648 19 464.117 19 463.586C19 463.056 19 462.525 19 461.995C19 461.465 19 460.935 19 460.405C19 459.875 19 459.346 19 458.816C19 458.287 19 457.758 19 457.229C19 456.7 19 456.171 19 455.643C19 455.115 19 454.586 19 454.058C19 453.531 19 453.003 19 452.475C19 451.948 19 451.421 19 450.894C19 450.367 19 449.84 19 449.314C19 448.787 19 448.261 19 447.735C19 447.21 19 446.684 19 446.159C19 445.633 19 445.108 19 444.583C19 444.058 19 443.534 19 443.01C19 442.485 19 441.961 19 441.438C19 440.914 19 440.391 19 439.867C19 439.344 19 438.822 19 438.299C19 437.776 19 437.254 19 436.732C19 436.21 19 435.689 19 435.167C19 434.646 19 434.125 19 433.604C19 433.083 19 432.563 19 432.043C19 431.523 19 431.003 19 430.484C19 429.964 19 429.445 19 428.926C19 428.407 19 427.889 19 427.371C19 426.853 19 426.335 19 425.817C19 425.3 19 424.783 19 424.266C19 423.749 19 423.232 19 422.716C19 422.2 19 421.684 19 421.169C19 420.654 19 420.138 19 419.624C19 419.109 19 418.595 19 418.081C19 417.567 19 417.053 19 416.54C19 416.026 19 415.513 19 415.001C19 414.488 19 413.976 19 413.464C19 412.953 19 412.441 19 411.93C19 411.419 19 410.908 19 410.398C19 409.888 19 409.378 19 408.869C19 408.359 19 407.85 19 407.341C19 406.833 19 406.324 19 405.816C19 405.308 19 404.801 19 404.294C19 403.787 19 403.28 19 402.774C19 402.268 19 401.762 19 401.256C19 400.751 19 400.246 19 399.741C19 399.237 19 398.732 19 398.229C19 397.725 19 397.222 19 396.719C19 396.216 19 395.713 19 395.211C19 394.709 19 394.208 19 393.707C19 393.205 19 392.705 19 392.205C19 391.704 19 391.204 19 390.705C19 390.206 19 389.707 19 389.209C19 388.71 19 388.212 19 387.715C19 387.217 19 386.72 19 386.223C19 385.727 19 385.231 19 384.735C19 384.24 19 383.744 19 383.25C19 382.755 19 382.261 19 381.767C19 381.273 19 380.78 19 380.288C19 379.795 19 379.303 19 378.811C19 378.319 19 377.828 19 377.337C19 376.846 19 376.356 19 375.866C19 375.377 19 374.887 19 374.399C19 373.91 19 373.422 19 372.934C19 372.446 19 371.959 19 371.472C19 370.986 19 370.499 19 370.014C19 369.528 19 369.043 19 368.559C19 368.074 19 367.59 19 367.106C19 366.623 19 366.14 19 365.658C19 365.175 19 364.693 19 364.212C19 363.731 19 363.25 19 362.769C19 362.289 19 361.81 19 361.33C19 360.851 19 360.373 19 359.895C19 359.417 19 358.939 19 358.462C19 357.985 19 357.509 19 357.033C19 356.558 19 356.082 19 355.608C19 355.133 19 354.659 19 354.186C19 353.712 19 353.239 19 352.767C19 352.295 19 351.823 19 351.352C19 350.881 19 350.411 19 349.941C19 349.471 19 349.001 19 348.533C19 348.064 19 347.596 19 347.128C19 346.661 19 346.194 19 345.728C19 345.262 19 344.796 19 344.331C19 343.866 19 343.401 19 342.938C19 342.474 19 342.011 19 341.548C19 341.085 19 340.624 19 340.162C19 339.701 19 339.24 19 338.78C19 338.32 19 337.861 19 337.402C19 336.943 19 336.485 19 336.028C19 335.571 19 335.114 19 334.658C19 334.201 19 333.746 19 333.291C19 332.836 19 332.382 19 331.929C19 331.475 19 331.022 19 330.57C19 330.118 19 329.666 19 329.216C19 328.765 19 328.315 19 327.865C19 327.416 19 326.967 19 326.519C19 326.071 19 325.623 19 325.177C19 324.73 19 324.284 19 323.838C19 323.393 19 322.948 19 322.505C19 322.061 19 321.617 19 321.175C19 320.732 19 320.29 19 319.849C19 319.408 19 318.968 19 318.528C19 318.088 19 317.649 19 317.211C19 316.773 19 316.335 19 315.898C19 315.462 19 315.025 19 314.59C19 314.155 19 313.72 19 313.286C19 312.852 19 312.419 19 311.987C19 311.554 19 311.123 19 310.692C19 310.261 19 309.831 19 309.401C19 308.972 19 308.543 19 308.115C19 307.687 19 307.26 19 306.834C19 306.407 19 305.982 19 305.557C19 305.132 19 304.708 19 304.284C19 303.861 19 303.438 19 303.017C19 302.595 19 302.174 19 301.754C19 301.333 19 300.914 19 300.495C19 300.077 19 299.659 19 299.242C19 298.825 19 298.408 19 297.993C19 297.577 19 297.163 19 296.749C19 296.335 19 295.922 19 295.509C19 295.097 19 294.686 19 294.275C19 293.864 19 293.454 19 293.045C19 292.636 19 292.228 19 291.821C19 291.413 19 291.007 19 290.601C19 290.195 19 289.791 19 289.386C19 288.982 19 288.579 19 288.177C19 287.774 19 287.373 19 286.972C19 286.571 19 286.171 19 285.772C19 285.373 19 284.975 19 284.578C19 284.181 19 283.784 19 283.388C19 282.993 19 282.598 19 282.204C19 281.81 19 281.417 19 281.025C19 280.633 19 280.242 19 279.851C19 279.461 19 279.071 19 278.683C19 278.294 19 277.906 19 277.519C19 277.133 19 276.747 19 276.361C19 275.976 19 275.592 19 275.209C19 274.825 19 274.443 19 274.061C19 273.68 19 273.299 19 272.92C19 272.54 19 272.161 19 271.783C19 271.405 19 271.028 19 270.652C19 270.276 19 269.901 19 269.527C19 269.152 19 268.779 19 268.407C19 268.034 19 267.663 19 267.292C19 266.922 19 266.552 19 266.183C19 265.815 19 265.447 19 265.08C19 264.713 19 264.347 19 263.983C19 263.618 19 263.254 19 262.891C19 262.528 19 262.166 19 261.804C19 261.443 19 261.083 19 260.724C19 260.365 19 260.007 19 259.649C19 259.292 19 258.936 19 258.58C19 258.225 19 257.871 19 257.517C19 257.164 19 256.812 19 256.46C19 256.109 19 255.758 19 255.409C19 255.06 19 254.711 19 254.364C19 254.016 19 253.67 19 253.324C19 252.979 19 252.634 19 252.291C19 251.947 19 251.605 19 251.263C19 250.922 19 250.582 19 250.242C19 249.903 19 249.564 19 249.227C19 248.889 19 248.553 19 248.218C19 247.882 19 247.548 19 247.215C19 246.881 19 246.549 19 246.218C19 245.887 19 245.556 19 245.227C19 244.898 19 244.57 19 244.243C19 243.916 19 243.59 19 243.265C19 242.94 19 242.616 19 242.293C19 241.97 19 241.648 19 241.327C19 241.006 19 240.687 19 240.368C19 240.049 19 239.732 19 239.415C19 239.099 19 238.783 19 238.469C19 238.155 19 237.841 19 237.529C19 237.217 19 236.906 19 236.596C19 236.286 19 235.977 19 235.669C19 235.361 19 235.054 19 234.748C19 234.443 19 234.138 19 233.834C19 233.531 19 233.229 19 232.927C19 232.626 19 232.326 19 232.027C19 231.728 19 231.43 19 231.133C19 230.836 19 230.54 19 230.246C19 229.951 19 229.657 19 229.365C19 229.073 19 228.781 19 228.491C19 228.201 19 227.912 19 227.624C19 227.337 19 227.05 19 226.764C19 226.479 19 226.194 19 225.911C19 225.628 19 225.346 19 225.065C19 224.784 19 224.504 19 224.225C19 223.946 19 223.669 19 223.393C19 223.116 19 222.841 19 222.567C19 222.293 19 222.02 19 221.748C19 221.477 19 221.206 19 220.937C19 220.668 19 220.399 19 220.132C19 219.865 19 219.6 19 219.335C19 219.07 19 218.807 19 218.545C19 218.283 19 218.022 19 217.762C19 217.502 19 217.243 19 216.986C19 216.728 19 216.472 19 216.217C19 215.962 19 215.708 19 215.456C19 215.203 19 214.952 19 214.702C19 214.451 19 214.202 19 213.955C19 213.707 19 213.46 19 213.215C19 212.97 19 212.726 19 212.483C19 212.24 19 211.999 19 211.758C19 211.518 19 211.279 19 211.041C19 210.803 19 210.567 19 210.331C19 210.096 19 209.862 19 209.629C19 209.396 19 209.164 19 208.934C19 208.704 19 208.475 19 208.247C19 208.019 19 207.792 19 207.567C19 207.342 19 207.118 19 206.895C19 206.672 19 206.451 19 206.231C19 206.011 19 205.792 19 205.574C19 205.356 19 205.14 19 204.925H17C17 205.14 17 205.356 17 205.574C17 205.792 17 206.011 17 206.231C17 206.451 17 206.672 17 206.895C17 207.118 17 207.342 17 207.567C17 207.792 17 208.019 17 208.247C17 208.475 17 208.704 17 208.934C17 209.164 17 209.396 17 209.629C17 209.862 17 210.096 17 210.331C17 210.567 17 210.803 17 211.041C17 211.279 17 211.518 17 211.758C17 211.999 17 212.24 17 212.483C17 212.726 17 212.97 17 213.215C17 213.46 17 213.707 17 213.955C17 214.202 17 214.451 17 214.702C17 214.952 17 215.203 17 215.456C17 215.708 17 215.962 17 216.217C17 216.472 17 216.728 17 216.986C17 217.243 17 217.502 17 217.762C17 218.022 17 218.283 17 218.545C17 218.807 17 219.07 17 219.335C17 219.6 17 219.865 17 220.132C17 220.399 17 220.668 17 220.937C17 221.206 17 221.477 17 221.748C17 222.02 17 222.293 17 222.567C17 222.841 17 223.116 17 223.393C17 223.669 17 223.946 17 224.225C17 224.504 17 224.784 17 225.065C17 225.346 17 225.628 17 225.911C17 226.194 17 226.479 17 226.764C17 227.05 17 227.337 17 227.624C17 227.912 17 228.201 17 228.491C17 228.781 17 229.073 17 229.365C17 229.657 17 229.951 17 230.246C17 230.54 17 230.836 17 231.133C17 231.43 17 231.728 17 232.027C17 232.326 17 232.626 17 232.927C17 233.229 17 233.531 17 233.834C17 234.138 17 234.443 17 234.748C17 235.054 17 235.361 17 235.669C17 235.977 17 236.286 17 236.596C17 236.906 17 237.217 17 237.529C17 237.841 17 238.155 17 238.469C17 238.783 17 239.099 17 239.415C17 239.732 17 240.049 17 240.368C17 240.687 17 241.006 17 241.327C17 241.648 17 241.97 17 242.293C17 242.616 17 242.94 17 243.265C17 243.59 17 243.916 17 244.243C17 244.57 17 244.898 17 245.227C17 245.556 17 245.887 17 246.218C17 246.549 17 246.881 17 247.215C17 247.548 17 247.882 17 248.218C17 248.553 17 248.889 17 249.227C17 249.564 17 249.903 17 250.242C17 250.582 17 250.922 17 251.263C17 251.605 17 251.947 17 252.291C17 252.634 17 252.979 17 253.324C17 253.67 17 254.016 17 254.364C17 254.711 17 255.06 17 255.409C17 255.758 17 256.109 17 256.46C17 256.812 17 257.164 17 257.517C17 257.871 17 258.225 17 258.58C17 258.936 17 259.292 17 259.649C17 260.007 17 260.365 17 260.724C17 261.083 17 261.443 17 261.804C17 262.166 17 262.528 17 262.891C17 263.254 17 263.618 17 263.983C17 264.347 17 264.713 17 265.08C17 265.447 17 265.815 17 266.183C17 266.552 17 266.922 17 267.292C17 267.663 17 268.034 17 268.407C17 268.779 17 269.152 17 269.527C17 269.901 17 270.276 17 270.652C17 271.028 17 271.405 17 271.783C17 272.161 17 272.54 17 272.92C17 273.299 17 273.68 17 274.061C17 274.443 17 274.825 17 275.209C17 275.592 17 275.976 17 276.361C17 276.747 17 277.133 17 277.519C17 277.906 17 278.294 17 278.683C17 279.071 17 279.461 17 279.851C17 280.242 17 280.633 17 281.025C17 281.417 17 281.81 17 282.204C17 282.598 17 282.993 17 283.388C17 283.784 17 284.181 17 284.578C17 284.975 17 285.373 17 285.772C17 286.171 17 286.571 17 286.972C17 287.373 17 287.774 17 288.177C17 288.579 17 288.982 17 289.386C17 289.791 17 290.195 17 290.601C17 291.007 17 291.413 17 291.821C17 292.228 17 292.636 17 293.045C17 293.454 17 293.864 17 294.275C17 294.686 17 295.097 17 295.509C17 295.922 17 296.335 17 296.749C17 297.163 17 297.577 17 297.993C17 298.408 17 298.825 17 299.242C17 299.659 17 300.077 17 300.495C17 300.914 17 301.333 17 301.754C17 302.174 17 302.595 17 303.017C17 303.438 17 303.861 17 304.284C17 304.708 17 305.132 17 305.557C17 305.982 17 306.407 17 306.834C17 307.26 17 307.687 17 308.115C17 308.543 17 308.972 17 309.401C17 309.831 17 310.261 17 310.692C17 311.123 17 311.554 17 311.987C17 312.419 17 312.852 17 313.286C17 313.72 17 314.155 17 314.59C17 315.025 17 315.462 17 315.898C17 316.335 17 316.773 17 317.211C17 317.649 17 318.088 17 318.528C17 318.968 17 319.408 17 319.849C17 320.29 17 320.732 17 321.175C17 321.617 17 322.061 17 322.505C17 322.948 17 323.393 17 323.838C17 324.284 17 324.73 17 325.177C17 325.623 17 326.071 17 326.519C17 326.967 17 327.416 17 327.865C17 328.315 17 328.765 17 329.216C17 329.666 17 330.118 17 330.57C17 331.022 17 331.475 17 331.929C17 332.382 17 332.836 17 333.291C17 333.746 17 334.201 17 334.658C17 335.114 17 335.571 17 336.028C17 336.485 17 336.943 17 337.402C17 337.861 17 338.32 17 338.78C17 339.24 17 339.701 17 340.162C17 340.624 17 341.085 17 341.548C17 342.011 17 342.474 17 342.938C17 343.401 17 343.866 17 344.331C17 344.796 17 345.262 17 345.728C17 346.194 17 346.661 17 347.128C17 347.596 17 348.064 17 348.533C17 349.001 17 349.471 17 349.941C17 350.411 17 350.881 17 351.352C17 351.823 17 352.295 17 352.767C17 353.239 17 353.712 17 354.186C17 354.659 17 355.133 17 355.608C17 356.082 17 356.558 17 357.033C17 357.509 17 357.985 17 358.462C17 358.939 17 359.417 17 359.895C17 360.373 17 360.851 17 361.33C17 361.81 17 362.289 17 362.769C17 363.25 17 363.731 17 364.212C17 364.693 17 365.175 17 365.658C17 366.14 17 366.623 17 367.106C17 367.59 17 368.074 17 368.559C17 369.043 17 369.528 17 370.014C17 370.499 17 370.986 17 371.472C17 371.959 17 372.446 17 372.934C17 373.422 17 373.91 17 374.399C17 374.887 17 375.377 17 375.866C17 376.356 17 376.846 17 377.337C17 377.828 17 378.319 17 378.811C17 379.303 17 379.795 17 380.288C17 380.78 17 381.273 17 381.767C17 382.261 17 382.755 17 383.25C17 383.744 17 384.24 17 384.735C17 385.231 17 385.727 17 386.223C17 386.72 17 387.217 17 387.715C17 388.212 17 388.71 17 389.209C17 389.707 17 390.206 17 390.705C17 391.204 17 391.704 17 392.205C17 392.705 17 393.205 17 393.707C17 394.208 17 394.709 17 395.211C17 395.713 17 396.216 17 396.719C17 397.222 17 397.725 17 398.229C17 398.732 17 399.237 17 399.741C17 400.246 17 400.751 17 401.256C17 401.762 17 402.268 17 402.774C17 403.28 17 403.787 17 404.294C17 404.801 17 405.308 17 405.816C17 406.324 17 406.833 17 407.341C17 407.85 17 408.359 17 408.869C17 409.378 17 409.888 17 410.398C17 410.908 17 411.419 17 411.93C17 412.441 17 412.953 17 413.464C17 413.976 17 414.488 17 415.001C17 415.513 17 416.026 17 416.54C17 417.053 17 417.567 17 418.081C17 418.595 17 419.109 17 419.624C17 420.138 17 420.654 17 421.169C17 421.684 17 422.2 17 422.716C17 423.232 17 423.749 17 424.266C17 424.783 17 425.3 17 425.817C17 426.335 17 426.853 17 427.371C17 427.889 17 428.407 17 428.926C17 429.445 17 429.964 17 430.484C17 431.003 17 431.523 17 432.043C17 432.563 17 433.083 17 433.604C17 434.125 17 434.646 17 435.167C17 435.689 17 436.21 17 436.732C17 437.254 17 437.776 17 438.299C17 438.822 17 439.344 17 439.867C17 440.391 17 440.914 17 441.438C17 441.961 17 442.485 17 443.01C17 443.534 17 444.058 17 444.583C17 445.108 17 445.633 17 446.159C17 446.684 17 447.21 17 447.735C17 448.261 17 448.787 17 449.314C17 449.84 17 450.367 17 450.894C17 451.421 17 451.948 17 452.475C17 453.003 17 453.531 17 454.058C17 454.586 17 455.115 17 455.643C17 456.171 17 456.7 17 457.229C17 457.758 17 458.287 17 458.816C17 459.346 17 459.875 17 460.405C17 460.935 17 461.465 17 461.995C17 462.525 17 463.056 17 463.586C17 464.117 17 464.648 17 465.179C17 465.71 17 466.241 17 466.773C17 467.304 17 467.836 17 468.368C17 468.9 17 469.432 17 469.964C17 470.496 17 471.029 17 471.561C17 472.094 17 472.627 17 473.16C17 473.693 17 474.226 17 474.759C17 475.293 17 475.826 17 476.36C17 476.894 17 477.428 17 477.962C17 478.496 17 479.03 17 479.565C17 480.099 17 480.633 17 481.168C17 481.703 17 482.238 17 482.773C17 483.308 17 483.843 17 484.378C17 484.914 17 485.449 17 485.985C17 486.52 17 487.056 17 487.592C17 488.128 17 488.664 17 489.2C17 489.736 17 490.272 17 490.809C17 491.345 17 491.882 17 492.418C17 492.955 17 493.492 17 494.029C17 494.565 17 495.102 17 495.64C17 496.177 17 496.714 17 497.251C17 497.789 17 498.326 17 498.863C17 499.401 17 499.939 17 500.476C17 501.014 17 501.552 17 502.09C17 502.628 17 503.166 17 503.704C17 504.242 17 504.78 17 505.318C17 505.856 17 506.395 17 506.933C17 507.472 17 508.01 17 508.549C17 509.087 17 509.626 17 510.164C17 510.703 17 511.242 17 511.781C17 512.319 17 512.858 17 513.397C17 513.936 17 514.475 17 515.014C17 515.553 17 516.092 17 516.631C17 517.17 17 517.709 17 518.249C17 518.788 17 519.327 17 519.866C17 520.405 17 520.945 17 521.484C17 522.023 17 522.563 17 523.102C17 523.641 17 524.181 17 524.72C17 525.26 17 525.799 17 526.338C17 526.878 17 527.417 17 527.957C17 528.496 17 529.036 17 529.575C17 530.115 17 530.654 17 531.193C17 531.733 17 532.272 17 532.812C17 533.351 17 533.891 17 534.43C17 534.97 17 535.509 17 536.048C17 536.588 17 537.127 17 537.666C17 675.74 17 812.272 17 861.152H19ZM581 123.912C581 124.148 581 124.386 581 124.625C581 124.864 581 125.105 581 125.347C581 125.589 581 125.833 581 126.078C581 126.323 581 126.569 581 126.817C581 127.066 581 127.315 581 127.566C581 127.817 581 128.069 581 128.323C581 128.577 581 128.832 581 129.089C581 129.346 581 129.604 581 129.864C581 130.123 581 130.384 581 130.647C581 130.909 581 131.173 581 131.439C581 131.704 581 131.971 581 132.239C581 132.507 581 132.777 581 133.048C581 133.319 581 133.592 581 133.866C581 134.139 581 134.415 581 134.691C581 134.968 581 135.246 581 135.526C581 135.805 581 136.086 581 136.368C581 136.651 581 136.934 581 137.219C581 137.504 581 137.791 581 138.079C581 138.367 581 138.656 581 138.946C581 139.237 581 139.529 581 139.822C581 140.115 581 140.41 581 140.706C581 141.002 581 141.3 581 141.598C581 141.897 581 142.197 581 142.499C581 142.8 581 143.103 581 143.407C581 143.711 581 144.017 581 144.324C581 144.631 581 144.939 581 145.248C581 145.558 581 145.869 581 146.181C581 146.493 581 146.807 581 147.121C581 147.436 581 147.752 581 148.07C581 148.387 581 148.706 581 149.026C581 149.346 581 149.668 581 149.99C581 150.313 581 150.637 581 150.962C581 151.288 581 151.614 581 151.942C581 152.27 581 152.599 581 152.93C581 153.26 581 153.592 581 153.925C581 154.258 581 154.592 581 154.928C581 155.263 581 155.6 581 155.938C581 156.276 581 156.616 581 156.957C581 157.297 581 157.639 581 157.982C581 158.325 581 158.67 581 159.015C581 159.361 581 159.708 581 160.056C581 160.404 581 160.754 581 161.104C581 161.455 581 161.807 581 162.16C581 162.513 581 162.868 581 163.223C581 163.579 581 163.935 581 164.293C581 164.651 581 165.011 581 165.371C581 165.732 581 166.093 581 166.456C581 166.819 581 167.183 581 167.548C581 167.914 581 168.28 581 168.648C581 169.016 581 169.384 581 169.754C581 170.125 581 170.496 581 170.868C581 171.241 581 171.614 581 171.989C581 172.364 581 172.74 581 173.117C581 173.494 581 173.873 581 174.252C581 174.631 581 175.012 581 175.394C581 175.776 581 176.159 581 176.543C581 176.927 581 177.312 581 177.699C581 178.085 581 178.473 581 178.862C581 179.25 581 179.64 581 180.031C581 180.422 581 180.814 581 181.208C581 181.601 581 181.995 581 182.391C581 182.786 581 183.183 581 183.581C581 183.979 581 184.378 581 184.778C581 185.178 581 185.579 581 185.981C581 186.383 581 186.786 581 187.191C581 187.595 581 188.001 581 188.408C581 188.814 581 189.222 581 189.631C581 190.04 581 190.45 581 190.861C581 191.272 581 191.684 581 192.097C581 192.51 581 192.924 581 193.34C581 193.755 581 194.171 581 194.589C581 195.006 581 195.425 581 195.844C581 196.264 581 196.684 581 197.106C581 197.528 581 197.951 581 198.374C581 198.798 581 199.223 581 199.649C581 200.075 581 200.502 581 200.93C581 201.358 581 201.787 581 202.217C581 202.647 581 203.078 581 203.51C581 203.942 581 204.375 581 204.809C581 205.243 581 205.678 581 206.115C581 206.551 581 206.988 581 207.426C581 207.864 581 208.303 581 208.744C581 209.184 581 209.625 581 210.067C581 210.509 581 210.953 581 211.397C581 211.841 581 212.286 581 212.732C581 213.178 581 213.626 581 214.074C581 214.522 581 214.971 581 215.421C581 215.871 581 216.322 581 216.774C581 217.226 581 217.679 581 218.133C581 218.587 581 219.042 581 219.497C581 219.953 581 220.41 581 220.868C581 221.325 581 221.784 581 222.244C581 222.703 581 223.164 581 223.625C581 224.087 581 224.549 581 225.013C581 225.476 581 225.94 581 226.406C581 226.871 581 227.337 581 227.804C581 228.271 581 228.739 581 229.208C581 229.677 581 230.147 581 230.617C581 231.088 581 231.56 581 232.032C581 232.505 581 232.978 581 233.452C581 233.927 581 234.402 581 234.878C581 235.354 581 235.831 581 236.309C581 236.787 581 237.266 581 237.745C581 238.225 581 238.705 581 239.187C581 239.668 581 240.15 581 240.633C581 241.116 581 241.6 581 242.085C581 242.57 581 243.056 581 243.542C581 244.029 581 244.516 581 245.004C581 245.493 581 245.982 581 246.472C581 246.962 581 247.452 581 247.944C581 248.436 581 248.928 581 249.421C581 249.915 581 250.409 581 250.904C581 251.399 581 251.894 581 252.391C581 252.887 581 253.385 581 253.883C581 254.381 581 254.88 581 255.38C581 255.88 581 256.381 581 256.882C581 257.383 581 257.886 581 258.389C581 258.892 581 259.395 581 259.9C581 260.405 581 260.91 581 261.416C581 261.922 581 262.429 581 262.937C581 263.445 581 263.953 581 264.462C581 264.972 581 265.482 581 265.993C581 266.503 581 267.015 581 267.527C581 268.04 581 268.553 581 269.067C581 269.58 581 270.095 581 270.61C581 271.126 581 271.642 581 272.159C581 272.675 581 273.193 581 273.711C581 274.23 581 274.749 581 275.268C581 275.788 581 276.309 581 276.83C581 277.351 581 277.873 581 278.396C581 278.918 581 279.442 581 279.966C581 280.49 581 281.015 581 281.54C581 282.066 581 282.592 581 283.119C581 283.646 581 284.173 581 284.701C581 285.23 581 285.759 581 286.288C581 286.818 581 287.348 581 287.88C581 288.411 581 288.942 581 289.475C581 290.007 581 290.54 581 291.074C581 291.608 581 292.142 581 292.677C581 293.212 581 293.748 581 294.284C581 294.821 581 295.358 581 295.896C581 296.433 581 296.972 581 297.511C581 298.05 581 298.589 581 299.13C581 299.67 581 300.211 581 300.752C581 301.294 581 301.836 581 302.379C581 302.922 581 303.465 581 304.009C581 304.553 581 305.098 581 305.644C581 306.189 581 306.735 581 307.281C581 307.828 581 308.375 581 308.923C581 309.471 581 310.019 581 310.568C581 311.117 581 311.666 581 312.217C581 312.767 581 313.317 581 313.869C581 314.42 581 314.972 581 315.525C581 316.077 581 316.63 581 317.184C581 317.738 581 318.292 581 318.847C581 319.401 581 319.957 581 320.513C581 321.069 581 321.625 581 322.182C581 322.739 581 323.297 581 323.855C581 324.413 581 324.972 581 325.531C581 326.09 581 326.65 581 327.211C581 327.771 581 328.332 581 328.893C581 329.455 581 330.017 581 330.579C581 331.142 581 331.705 581 332.268C581 332.832 581 333.396 581 333.96C581 334.525 581 335.09 581 335.656C581 336.221 581 336.787 581 337.354C581 337.92 581 338.488 581 339.055C581 339.623 581 340.191 581 340.76C581 341.328 581 341.897 581 342.467C581 343.036 581 343.606 581 344.177C581 344.748 581 345.319 581 345.89C581 346.462 581 347.034 581 347.606C581 348.178 581 348.751 581 349.325C581 349.898 581 350.472 581 351.046C581 351.621 581 352.195 581 352.771C581 353.346 581 353.921 581 354.497C581 355.074 581 355.65 581 356.227C581 356.804 581 357.381 581 357.959C581 358.537 581 359.115 581 359.694C581 360.273 581 360.852 581 361.432C581 362.011 581 362.591 581 363.172C581 363.752 581 364.333 581 364.914C581 365.495 581 366.077 581 366.659C581 367.241 581 367.823 581 368.406C581 368.989 581 369.572 581 370.156C581 370.74 581 371.324 581 371.908C581 372.492 581 373.077 581 373.662C581 374.247 581 374.833 581 375.419C581 376.005 581 376.591 581 377.178C581 377.765 581 378.352 581 378.939C581 379.526 581 380.114 581 380.702C581 381.29 581 381.879 581 382.468C581 383.056 581 383.646 581 384.235C581 384.825 581 385.414 581 386.005C581 386.595 581 387.185 581 387.776C581 388.367 581 388.958 581 389.55C581 390.141 581 390.733 581 391.325C581 391.918 581 392.51 581 393.103C581 393.696 581 394.289 581 394.882C581 395.476 581 396.069 581 396.663C581 397.257 581 397.852 581 398.446C581 399.041 581 399.636 581 400.231C581 400.827 581 401.422 581 402.018C581 402.614 581 403.21 581 403.806C581 404.402 581 404.999 581 405.596C581 406.193 581 406.79 581 407.388C581 407.985 581 408.583 581 409.181C581 409.779 581 410.377 581 410.976C581 411.574 581 412.173 581 412.772C581 413.371 581 413.97 581 414.57C581 415.169 581 415.769 581 416.369C581 416.969 581 417.569 581 418.17C581 418.77 581 419.371 581 419.972C581 420.573 581 421.174 581 421.775C581 422.376 581 422.978 581 423.58C581 424.182 581 424.784 581 425.386C581 425.988 581 426.59 581 427.193C581 427.796 581 428.399 581 429.002C581 429.605 581 430.208 581 430.811C581 431.415 581 432.018 581 432.622C581 433.226 581 433.83 581 434.434C581 435.038 581 435.642 581 436.247C581 436.851 581 437.456 581 438.061C581 438.666 581 439.271 581 439.876C581 440.481 581 441.087 581 441.692C581 442.298 581 442.903 581 443.509C581 444.115 581 444.721 581 445.327C581 445.933 581 446.539 581 447.145C581 447.752 581 448.358 581 448.965C581 449.572 581 450.178 581 450.785C581 451.392 581 451.999 581 452.606C581 453.213 581 453.821 581 454.428C581 455.035 581 455.643 581 456.25C581 456.858 581 457.466 581 458.073C581 458.681 581 459.289 581 459.897C581 460.505 581 461.113 581 461.721C581 462.33 581 462.938 581 463.546C581 464.155 581 464.763 581 465.372C581 465.98 581 466.589 581 467.197C581 467.806 581 468.415 581 469.024C581 469.632 581 470.241 581 470.85C581 471.459 581 472.068 581 472.677C581 473.286 581 473.895 581 474.504C581 475.114 581 475.723 581 476.332C581 476.941 581 477.55 581 478.16C581 478.769 581 479.378 581 479.988C581 480.597 581 481.207 581 481.816C581 482.426 581 483.035 581 483.644C581 484.254 581 484.863 581 485.473C581 486.082 581 486.692 581 487.302C581 487.911 581 488.521 581 489.13C581 489.74 581 490.349 581 490.959C581 491.568 581 492.178 581 492.787C581 493.397 581 494.006 581 494.616C581 495.225 581 495.835 581 496.444C581 497.054 581 497.663 581 498.273C581 498.882 581 499.491 581 500.101C581 500.71 581 501.319 581 501.929C581 502.538 581 503.147 581 503.756C581 504.366 581 504.975 581 505.584C581 506.193 581 506.802 581 507.411C581 508.02 581 508.629 581 509.238C581 509.846 581 510.455 581 511.064C581 511.673 581 512.281 581 512.89C581 513.498 581 514.107 581 514.715C581 515.324 581 515.932 581 516.54C581 517.149 581 517.757 581 518.365C581 518.973 581 519.581 581 520.189C581 520.797 581 521.404 581 522.012C581 522.62 581 523.227 581 523.835C581 524.442 581 525.049 581 525.657C581 526.264 581 526.871 581 527.478C581 528.085 581 528.692 581 529.299C581 529.905 581 530.512 581 531.118C581 531.725 581 532.331 581 532.937C581 533.543 581 534.15 581 534.755C581 535.361 581 535.967 581 536.573C581 537.178 581 537.784 581 538.389C581 538.994 581 539.599 581 540.204C581 540.809 581 541.414 581 542.019C581 542.623 581 543.228 581 543.832C581 544.436 581 545.041 581 545.644C581 546.248 581 546.852 581 547.456C581 548.059 581 548.663 581 549.266C581 549.869 581 550.472 581 551.075C581 551.677 581 552.28 581 552.882C581 553.485 581 554.087 581 554.689C581 555.291 581 555.893 581 556.494C581 557.096 581 557.697 581 558.298C581 558.899 581 559.5 581 560.101C581 560.701 581 561.302 581 561.902C581 562.502 581 563.102 581 563.702C581 564.301 581 564.901 581 565.5C581 566.099 581 566.698 581 567.297C581 567.895 581 568.494 581 569.092C581 569.69 581 570.288 581 570.886C581 571.483 581 572.081 581 572.678C581 573.275 581 573.872 581 574.468C581 575.065 581 575.661 581 576.257C581 576.853 581 577.449 581 578.045C581 578.64 581 579.235 581 579.83C581 580.425 581 581.019 581 581.614C581 582.208 581 582.802 581 583.396C581 583.989 581 584.583 581 585.176C581 585.769 581 586.361 581 586.954C581 587.546 581 588.138 581 588.73C581 589.322 581 589.913 581 590.504C581 591.095 581 591.686 581 592.277C581 592.867 581 593.457 581 594.047C581 594.637 581 595.226 581 595.815C581 596.404 581 596.993 581 597.581C581 598.17 581 598.758 581 599.345C581 599.933 581 600.52 581 601.107C581 601.694 581 602.281 581 602.867C581 603.453 581 604.039 581 604.625C581 605.21 581 605.795 581 606.38C581 606.964 581 607.549 581 608.133C581 608.717 581 609.3 581 609.883C581 610.466 581 611.049 581 611.631C581 612.214 581 612.796 581 613.377C581 613.959 581 614.54 581 615.121C581 615.701 581 616.282 581 616.861C581 617.441 581 618.021 581 618.6C581 619.179 581 619.757 581 620.336C581 620.914 581 621.491 581 622.069C581 622.646 581 623.223 581 623.799C581 624.376 581 624.952 581 625.527C581 626.103 581 626.678 581 627.252C581 627.827 581 628.401 581 628.975C581 629.549 581 630.122 581 630.695C581 631.268 581 631.84 581 632.412C581 632.984 581 633.555 581 634.126C581 634.697 581 635.267 581 635.837C581 636.407 581 636.976 581 637.545C581 638.114 581 638.683 581 639.251C581 639.819 581 640.386 581 640.953C581 641.52 581 642.087 581 642.653C581 643.219 581 643.784 581 644.349C581 644.914 581 645.478 581 646.042C581 646.606 581 647.17 581 647.733C581 648.295 581 648.858 581 649.42C581 649.981 581 650.543 581 651.103C581 651.664 581 652.224 581 652.784C581 653.344 581 653.903 581 654.461C581 655.02 581 655.578 581 656.135C581 656.693 581 657.25 581 657.806C581 658.363 581 658.918 581 659.474C581 660.029 581 660.583 581 661.137C581 661.692 581 662.245 581 662.798C581 663.351 581 663.903 581 664.455C581 665.007 581 665.558 581 666.109C581 666.659 581 667.209 581 667.759C581 668.308 581 668.857 581 669.405C581 669.953 581 670.501 581 671.048C581 671.595 581 672.141 581 672.687C581 673.233 581 673.778 581 674.322C581 674.867 581 675.411 581 675.954C581 676.497 581 677.04 581 677.582C581 678.124 581 678.666 581 679.206C581 679.747 581 680.287 581 680.827C581 681.366 581 681.905 581 682.443C581 682.981 581 683.519 581 684.056C581 684.593 581 685.129 581 685.665C581 686.2 581 686.735 581 687.269C581 687.803 581 688.337 581 688.87C581 689.403 581 689.935 581 690.467C581 690.998 581 691.529 581 692.059C581 692.589 581 693.119 581 693.648C581 694.176 581 694.705 581 695.232C581 695.759 581 696.286 581 696.812C581 697.338 581 697.863 581 698.388C581 698.913 581 699.437 581 699.96C581 700.483 581 701.005 581 701.527C581 702.049 581 702.57 581 703.09C581 703.61 581 704.13 581 704.649C581 705.168 581 705.686 581 706.203C581 706.721 581 707.237 581 707.753C581 708.269 581 708.784 581 709.298C581 709.813 581 710.326 581 710.839C581 711.352 581 711.864 581 712.376C581 712.887 581 713.398 581 713.907C581 714.417 581 714.926 581 715.435C581 715.943 581 716.45 581 716.957C581 717.464 581 717.97 581 718.475C581 718.98 581 719.485 581 719.988C581 720.492 581 720.995 581 721.497C581 721.999 581 722.5 581 723C581 723.501 581 724 581 724.499C581 724.998 581 725.496 581 725.993C581 726.49 581 726.986 581 727.482C581 727.977 581 728.472 581 728.966C581 729.46 581 729.953 581 730.445C581 730.937 581 731.429 581 731.919C581 732.41 581 732.9 581 733.388C581 733.877 581 734.365 581 734.852C581 735.34 581 735.826 581 736.311C581 736.797 581 737.281 581 737.765C581 738.249 581 738.732 581 739.214C581 739.696 581 740.177 581 740.657C581 741.138 581 741.617 581 742.095C581 742.574 581 743.052 581 743.528C581 744.005 581 744.481 581 744.956C581 745.431 581 745.905 581 746.378C581 746.851 581 747.323 581 747.795C581 748.266 581 748.737 581 749.206C581 749.676 581 750.144 581 750.612C581 751.08 581 751.547 581 752.013C581 752.478 581 752.943 581 753.408C581 753.872 581 754.335 581 754.797C581 755.259 581 755.72 581 756.181C581 756.641 581 757.1 581 757.559C581 758.017 581 758.475 581 758.931C581 759.388 581 759.843 581 760.298C581 760.752 581 761.206 581 761.659C581 762.111 581 762.563 581 763.014C581 763.465 581 763.914 581 764.363C581 764.812 581 765.26 581 765.707C581 766.154 581 766.6 581 767.044C581 767.489 581 767.933 581 768.376C581 768.819 581 769.261 581 769.702C581 770.143 581 770.583 581 771.022C581 771.461 581 771.899 581 772.335C581 772.772 581 773.208 581 773.643C581 774.078 581 774.512 581 774.945C581 775.377 581 775.809 581 776.24C581 776.671 581 777.101 581 777.529C581 777.958 581 778.386 581 778.812C581 779.239 581 779.665 581 780.089C581 780.514 581 780.937 581 781.36C581 781.782 581 782.204 581 782.624C581 783.044 581 783.464 581 783.882C581 784.3 581 784.717 581 785.133C581 785.549 581 785.964 581 786.378C581 786.792 581 787.205 581 787.617C581 788.029 581 788.44 581 788.849C581 789.259 581 789.667 581 790.075C581 790.482 581 790.889 581 791.294C581 791.699 581 792.103 581 792.506C581 792.909 581 793.311 581 793.712C581 794.113 581 794.513 581 794.911C581 795.31 581 795.707 581 796.104C581 796.5 581 796.895 581 797.289C581 797.683 581 798.076 581 798.468C581 798.86 581 799.251 581 799.64C581 800.03 581 800.418 581 800.806C581 801.193 581 801.579 581 801.964C581 802.349 581 802.733 581 803.116C581 803.498 581 803.88 581 804.26C581 804.64 581 805.02 581 805.398C581 805.776 581 806.152 581 806.528C581 806.904 581 807.278 581 807.652C581 808.025 581 808.397 581 808.768C581 809.139 581 809.509 581 809.877C581 810.246 581 810.613 581 810.979C581 811.345 581 811.71 581 812.074C581 812.438 581 812.8 581 813.162C581 813.523 581 813.883 581 814.242C581 814.601 581 814.959 581 815.315C581 815.672 581 816.027 581 816.381C581 816.735 581 817.088 581 817.439C581 817.791 581 818.141 581 818.49C581 818.839 581 819.187 581 819.534C581 819.88 581 820.226 581 820.57C581 820.914 581 821.257 581 821.598C581 821.94 581 822.28 581 822.619C581 822.958 581 823.296 581 823.632C581 823.969 581 824.304 581 824.638C581 824.972 581 825.305 581 825.636C581 825.968 581 826.298 581 826.626C581 826.955 581 827.283 581 827.609C581 827.935 581 828.26 581 828.584C581 828.908 581 829.23 581 829.551C581 829.872 581 830.192 581 830.51C581 830.829 581 831.146 581 831.461C581 831.777 581 832.092 581 832.405C581 832.718 581 833.03 581 833.34C581 833.651 581 833.96 581 834.268C581 834.576 581 834.882 581 835.187C581 835.492 581 835.796 581 836.099C581 836.401 581 836.702 581 837.002C581 837.302 581 837.6 581 837.897C581 838.194 581 838.49 581 838.784C581 839.079 581 839.372 581 839.663C581 839.955 581 840.245 581 840.534C581 840.823 581 841.11 581 841.396C581 841.682 581 841.967 581 842.25C581 842.534 581 842.815 581 843.096C581 843.376 581 843.656 581 843.933C581 844.211 581 844.487 581 844.762C581 845.037 581 845.311 581 845.583C581 845.855 581 846.126 581 846.395C581 846.664 581 846.932 581 847.198C581 847.465 581 847.73 581 847.993C581 848.257 581 848.519 581 848.78C581 849.04 581 849.3 581 849.557C581 849.815 581 850.072 581 850.327C581 850.581 581 850.835 581 851.087C581 851.339 581 851.589 581 851.839C581 852.088 581 852.335 581 852.582C581 852.828 581 853.072 581 853.316C581 853.559 581 853.801 581 854.041C581 854.281 581 854.52 581 854.757C581 854.995 581 855.231 581 855.465C581 855.699 581 855.932 581 856.163C581 856.395 581 856.625 581 856.853C581 857.081 581 857.308 581 857.534C581 857.759 581 857.983 581 858.205C581 858.428 581 858.648 581 858.868C581 859.087 581 859.305 581 859.521C581 859.737 581 859.952 581 860.165C581 860.378 581 860.59 581 860.8C581 861.01 581 861.219 581 861.426H583C583 861.219 583 861.01 583 860.8C583 860.59 583 860.378 583 860.165C583 859.952 583 859.737 583 859.521C583 859.305 583 859.087 583 858.868C583 858.648 583 858.428 583 858.205C583 857.983 583 857.759 583 857.534C583 857.308 583 857.081 583 856.853C583 856.625 583 856.395 583 856.163C583 855.932 583 855.699 583 855.465C583 855.231 583 854.995 583 854.757C583 854.52 583 854.281 583 854.041C583 853.801 583 853.559 583 853.316C583 853.072 583 852.828 583 852.582C583 852.335 583 852.088 583 851.839C583 851.589 583 851.339 583 851.087C583 850.835 583 850.581 583 850.327C583 850.072 583 849.815 583 849.557C583 849.3 583 849.04 583 848.78C583 848.519 583 848.257 583 847.993C583 847.73 583 847.465 583 847.198C583 846.932 583 846.664 583 846.395C583 846.126 583 845.855 583 845.583C583 845.311 583 845.037 583 844.762C583 844.487 583 844.211 583 843.933C583 843.656 583 843.376 583 843.096C583 842.815 583 842.534 583 842.25C583 841.967 583 841.682 583 841.396C583 841.11 583 840.823 583 840.534C583 840.245 583 839.955 583 839.663C583 839.372 583 839.079 583 838.784C583 838.49 583 838.194 583 837.897C583 837.6 583 837.302 583 837.002C583 836.702 583 836.401 583 836.099C583 835.796 583 835.492 583 835.187C583 834.882 583 834.576 583 834.268C583 833.96 583 833.651 583 833.34C583 833.03 583 832.718 583 832.405C583 832.092 583 831.777 583 831.461C583 831.146 583 830.829 583 830.51C583 830.192 583 829.872 583 829.551C583 829.23 583 828.908 583 828.584C583 828.26 583 827.935 583 827.609C583 827.283 583 826.955 583 826.626C583 826.298 583 825.968 583 825.636C583 825.305 583 824.972 583 824.638C583 824.304 583 823.969 583 823.632C583 823.296 583 822.958 583 822.619C583 822.28 583 821.94 583 821.598C583 821.257 583 820.914 583 820.57C583 820.226 583 819.88 583 819.534C583 819.187 583 818.839 583 818.49C583 818.141 583 817.791 583 817.439C583 817.088 583 816.735 583 816.381C583 816.027 583 815.672 583 815.315C583 814.959 583 814.601 583 814.242C583 813.883 583 813.523 583 813.162C583 812.8 583 812.438 583 812.074C583 811.71 583 811.345 583 810.979C583 810.613 583 810.246 583 809.877C583 809.509 583 809.139 583 808.768C583 808.397 583 808.025 583 807.652C583 807.278 583 806.904 583 806.528C583 806.152 583 805.776 583 805.398C583 805.02 583 804.64 583 804.26C583 803.88 583 803.498 583 803.116C583 802.733 583 802.349 583 801.964C583 801.579 583 801.193 583 800.806C583 800.418 583 800.03 583 799.64C583 799.251 583 798.86 583 798.468C583 798.076 583 797.683 583 797.289C583 796.895 583 796.5 583 796.104C583 795.707 583 795.31 583 794.911C583 794.513 583 794.113 583 793.712C583 793.311 583 792.909 583 792.506C583 792.103 583 791.699 583 791.294C583 790.889 583 790.482 583 790.075C583 789.667 583 789.259 583 788.849C583 788.44 583 788.029 583 787.617C583 787.205 583 786.792 583 786.378C583 785.964 583 785.549 583 785.133C583 784.717 583 784.3 583 783.882C583 783.464 583 783.044 583 782.624C583 782.204 583 781.782 583 781.36C583 780.937 583 780.514 583 780.089C583 779.665 583 779.239 583 778.812C583 778.386 583 777.958 583 777.529C583 777.101 583 776.671 583 776.24C583 775.809 583 775.377 583 774.945C583 774.512 583 774.078 583 773.643C583 773.208 583 772.772 583 772.335C583 771.899 583 771.461 583 771.022C583 770.583 583 770.143 583 769.702C583 769.261 583 768.819 583 768.376C583 767.933 583 767.489 583 767.044C583 766.6 583 766.154 583 765.707C583 765.26 583 764.812 583 764.363C583 763.914 583 763.465 583 763.014C583 762.563 583 762.111 583 761.659C583 761.206 583 760.752 583 760.298C583 759.843 583 759.388 583 758.931C583 758.475 583 758.017 583 757.559C583 757.1 583 756.641 583 756.181C583 755.72 583 755.259 583 754.797C583 754.335 583 753.872 583 753.408C583 752.943 583 752.478 583 752.013C583 751.547 583 751.08 583 750.612C583 750.144 583 749.676 583 749.206C583 748.737 583 748.266 583 747.795C583 747.323 583 746.851 583 746.378C583 745.905 583 745.431 583 744.956C583 744.481 583 744.005 583 743.528C583 743.052 583 742.574 583 742.095C583 741.617 583 741.138 583 740.657C583 740.177 583 739.696 583 739.214C583 738.732 583 738.249 583 737.765C583 737.281 583 736.797 583 736.311C583 735.826 583 735.34 583 734.852C583 734.365 583 733.877 583 733.388C583 732.9 583 732.41 583 731.919C583 731.429 583 730.937 583 730.445C583 729.953 583 729.46 583 728.966C583 728.472 583 727.977 583 727.482C583 726.986 583 726.49 583 725.993C583 725.496 583 724.998 583 724.499C583 724 583 723.501 583 723C583 722.5 583 721.999 583 721.497C583 720.995 583 720.492 583 719.988C583 719.485 583 718.98 583 718.475C583 717.97 583 717.464 583 716.957C583 716.45 583 715.943 583 715.435C583 714.926 583 714.417 583 713.907C583 713.398 583 712.887 583 712.376C583 711.864 583 711.352 583 710.839C583 710.326 583 709.813 583 709.298C583 708.784 583 708.269 583 707.753C583 707.237 583 706.721 583 706.203C583 705.686 583 705.168 583 704.649C583 704.13 583 703.61 583 703.09C583 702.57 583 702.049 583 701.527C583 701.005 583 700.483 583 699.96C583 699.437 583 698.913 583 698.388C583 697.863 583 697.338 583 696.812C583 696.286 583 695.759 583 695.232C583 694.705 583 694.176 583 693.648C583 693.119 583 692.589 583 692.059C583 691.529 583 690.998 583 690.467C583 689.935 583 689.403 583 688.87C583 688.337 583 687.803 583 687.269C583 686.735 583 686.2 583 685.665C583 685.129 583 684.593 583 684.056C583 683.519 583 682.981 583 682.443C583 681.905 583 681.366 583 680.827C583 680.287 583 679.747 583 679.206C583 678.666 583 678.124 583 677.582C583 677.04 583 676.497 583 675.954C583 675.411 583 674.867 583 674.322C583 673.778 583 673.233 583 672.687C583 672.141 583 671.595 583 671.048C583 670.501 583 669.953 583 669.405C583 668.857 583 668.308 583 667.759C583 667.209 583 666.659 583 666.109C583 665.558 583 665.007 583 664.455C583 663.903 583 663.351 583 662.798C583 662.245 583 661.692 583 661.137C583 660.583 583 660.029 583 659.474C583 658.918 583 658.363 583 657.806C583 657.25 583 656.693 583 656.135C583 655.578 583 655.02 583 654.461C583 653.903 583 653.344 583 652.784C583 652.224 583 651.664 583 651.103C583 650.543 583 649.981 583 649.42C583 648.858 583 648.295 583 647.733C583 647.17 583 646.606 583 646.042C583 645.478 583 644.914 583 644.349C583 643.784 583 643.219 583 642.653C583 642.087 583 641.52 583 640.953C583 640.386 583 639.819 583 639.251C583 638.683 583 638.114 583 637.545C583 636.976 583 636.407 583 635.837C583 635.267 583 634.697 583 634.126C583 633.555 583 632.984 583 632.412C583 631.84 583 631.268 583 630.695C583 630.122 583 629.549 583 628.975C583 628.401 583 627.827 583 627.252C583 626.678 583 626.103 583 625.527C583 624.952 583 624.376 583 623.799C583 623.223 583 622.646 583 622.069C583 621.491 583 620.914 583 620.336C583 619.757 583 619.179 583 618.6C583 618.021 583 617.441 583 616.861C583 616.282 583 615.701 583 615.121C583 614.54 583 613.959 583 613.377C583 612.796 583 612.214 583 611.631C583 611.049 583 610.466 583 609.883C583 609.3 583 608.717 583 608.133C583 607.549 583 606.964 583 606.38C583 605.795 583 605.21 583 604.625C583 604.039 583 603.453 583 602.867C583 602.281 583 601.694 583 601.107C583 600.52 583 599.933 583 599.345C583 598.758 583 598.17 583 597.581C583 596.993 583 596.404 583 595.815C583 595.226 583 594.637 583 594.047C583 593.457 583 592.867 583 592.277C583 591.686 583 591.095 583 590.504C583 589.913 583 589.322 583 588.73C583 588.138 583 587.546 583 586.954C583 586.361 583 585.769 583 585.176C583 584.583 583 583.989 583 583.396C583 582.802 583 582.208 583 581.614C583 581.019 583 580.425 583 579.83C583 579.235 583 578.64 583 578.045C583 577.449 583 576.853 583 576.257C583 575.661 583 575.065 583 574.468C583 573.872 583 573.275 583 572.678C583 572.081 583 571.483 583 570.886C583 570.288 583 569.69 583 569.092C583 568.494 583 567.895 583 567.297C583 566.698 583 566.099 583 565.5C583 564.901 583 564.301 583 563.702C583 563.102 583 562.502 583 561.902C583 561.302 583 560.701 583 560.101C583 559.5 583 558.899 583 558.298C583 557.697 583 557.096 583 556.494C583 555.893 583 555.291 583 554.689C583 554.087 583 553.485 583 552.882C583 552.28 583 551.677 583 551.075C583 550.472 583 549.869 583 549.266C583 548.663 583 548.059 583 547.456C583 546.852 583 546.248 583 545.644C583 545.041 583 544.436 583 543.832C583 543.228 583 542.623 583 542.019C583 541.414 583 540.809 583 540.204C583 539.599 583 538.994 583 538.389C583 537.784 583 537.178 583 536.573C583 535.967 583 535.361 583 534.755C583 534.15 583 533.543 583 532.937C583 532.331 583 531.725 583 531.118C583 530.512 583 529.905 583 529.299C583 528.692 583 528.085 583 527.478C583 526.871 583 526.264 583 525.657C583 525.049 583 524.442 583 523.835C583 523.227 583 522.62 583 522.012C583 521.404 583 520.797 583 520.189C583 519.581 583 518.973 583 518.365C583 517.757 583 517.149 583 516.54C583 515.932 583 515.324 583 514.715C583 514.107 583 513.498 583 512.89C583 512.281 583 511.673 583 511.064C583 510.455 583 509.846 583 509.238C583 508.629 583 508.02 583 507.411C583 506.802 583 506.193 583 505.584C583 504.975 583 504.366 583 503.756C583 503.147 583 502.538 583 501.929C583 501.319 583 500.71 583 500.101C583 499.491 583 498.882 583 498.273C583 497.663 583 497.054 583 496.444C583 495.835 583 495.225 583 494.616C583 494.006 583 493.397 583 492.787C583 492.178 583 491.568 583 490.959C583 490.349 583 489.74 583 489.13C583 488.521 583 487.911 583 487.302C583 486.692 583 486.082 583 485.473C583 484.863 583 484.254 583 483.644C583 483.035 583 482.426 583 481.816C583 481.207 583 480.597 583 479.988C583 479.378 583 478.769 583 478.16C583 477.55 583 476.941 583 476.332C583 475.723 583 475.114 583 474.504C583 473.895 583 473.286 583 472.677C583 472.068 583 471.459 583 470.85C583 470.241 583 469.632 583 469.024C583 468.415 583 467.806 583 467.197C583 466.589 583 465.98 583 465.372C583 464.763 583 464.155 583 463.546C583 462.938 583 462.33 583 461.721C583 461.113 583 460.505 583 459.897C583 459.289 583 458.681 583 458.073C583 457.466 583 456.858 583 456.25C583 455.643 583 455.035 583 454.428C583 453.821 583 453.213 583 452.606C583 451.999 583 451.392 583 450.785C583 450.178 583 449.572 583 448.965C583 448.358 583 447.752 583 447.145C583 446.539 583 445.933 583 445.327C583 444.721 583 444.115 583 443.509C583 442.903 583 442.298 583 441.692C583 441.087 583 440.481 583 439.876C583 439.271 583 438.666 583 438.061C583 437.456 583 436.851 583 436.247C583 435.642 583 435.038 583 434.434C583 433.83 583 433.226 583 432.622C583 432.018 583 431.415 583 430.811C583 430.208 583 429.605 583 429.002C583 428.399 583 427.796 583 427.193C583 426.59 583 425.988 583 425.386C583 424.784 583 424.182 583 423.58C583 422.978 583 422.376 583 421.775C583 421.174 583 420.573 583 419.972C583 419.371 583 418.77 583 418.17C583 417.569 583 416.969 583 416.369C583 415.769 583 415.169 583 414.57C583 413.97 583 413.371 583 412.772C583 412.173 583 411.574 583 410.976C583 410.377 583 409.779 583 409.181C583 408.583 583 407.985 583 407.388C583 406.79 583 406.193 583 405.596C583 404.999 583 404.402 583 403.806C583 403.21 583 402.614 583 402.018C583 401.422 583 400.827 583 400.231C583 399.636 583 399.041 583 398.446C583 397.852 583 397.257 583 396.663C583 396.069 583 395.476 583 394.882C583 394.289 583 393.696 583 393.103C583 392.51 583 391.918 583 391.325C583 390.733 583 390.141 583 389.55C583 388.958 583 388.367 583 387.776C583 387.185 583 386.595 583 386.005C583 385.414 583 384.825 583 384.235C583 383.646 583 383.056 583 382.468C583 381.879 583 381.29 583 380.702C583 380.114 583 379.526 583 378.939C583 378.352 583 377.765 583 377.178C583 376.591 583 376.005 583 375.419C583 374.833 583 374.247 583 373.662C583 373.077 583 372.492 583 371.908C583 371.324 583 370.74 583 370.156C583 369.572 583 368.989 583 368.406C583 367.823 583 367.241 583 366.659C583 366.077 583 365.495 583 364.914C583 364.333 583 363.752 583 363.172C583 362.591 583 362.011 583 361.432C583 360.852 583 360.273 583 359.694C583 359.115 583 358.537 583 357.959C583 357.381 583 356.804 583 356.227C583 355.65 583 355.074 583 354.497C583 353.921 583 353.346 583 352.771C583 352.195 583 351.621 583 351.046C583 350.472 583 349.898 583 349.325C583 348.751 583 348.178 583 347.606C583 347.034 583 346.462 583 345.89C583 345.319 583 344.748 583 344.177C583 343.606 583 343.036 583 342.467C583 341.897 583 341.328 583 340.76C583 340.191 583 339.623 583 339.055C583 338.488 583 337.92 583 337.354C583 336.787 583 336.221 583 335.656C583 335.09 583 334.525 583 333.96C583 333.396 583 332.832 583 332.268C583 331.705 583 331.142 583 330.579C583 330.017 583 329.455 583 328.893C583 328.332 583 327.771 583 327.211C583 326.65 583 326.09 583 325.531C583 324.972 583 324.413 583 323.855C583 323.297 583 322.739 583 322.182C583 321.625 583 321.069 583 320.513C583 319.957 583 319.401 583 318.847C583 318.292 583 317.738 583 317.184C583 316.63 583 316.077 583 315.525C583 314.972 583 314.42 583 313.869C583 313.317 583 312.767 583 312.217C583 311.666 583 311.117 583 310.568C583 310.019 583 309.471 583 308.923C583 308.375 583 307.828 583 307.281C583 306.735 583 306.189 583 305.644C583 305.098 583 304.553 583 304.009C583 303.465 583 302.922 583 302.379C583 301.836 583 301.294 583 300.752C583 300.211 583 299.67 583 299.13C583 298.589 583 298.05 583 297.511C583 296.972 583 296.433 583 295.896C583 295.358 583 294.821 583 294.284C583 293.748 583 293.212 583 292.677C583 292.142 583 291.608 583 291.074C583 290.54 583 290.007 583 289.475C583 288.942 583 288.411 583 287.88C583 287.348 583 286.818 583 286.288C583 285.759 583 285.23 583 284.701C583 284.173 583 283.646 583 283.119C583 282.592 583 282.066 583 281.54C583 281.015 583 280.49 583 279.966C583 279.442 583 278.918 583 278.396C583 277.873 583 277.351 583 276.83C583 276.309 583 275.788 583 275.268C583 274.749 583 274.23 583 273.711C583 273.193 583 272.675 583 272.159C583 271.642 583 271.126 583 270.61C583 270.095 583 269.58 583 269.067C583 268.553 583 268.04 583 267.527C583 267.015 583 266.503 583 265.993C583 265.482 583 264.972 583 264.462C583 263.953 583 263.445 583 262.937C583 262.429 583 261.922 583 261.416C583 260.91 583 260.405 583 259.9C583 259.395 583 258.892 583 258.389C583 257.886 583 257.383 583 256.882C583 256.381 583 255.88 583 255.38C583 254.88 583 254.381 583 253.883C583 253.385 583 252.887 583 252.391C583 251.894 583 251.399 583 250.904C583 250.409 583 249.915 583 249.421C583 248.928 583 248.436 583 247.944C583 247.452 583 246.962 583 246.472C583 245.982 583 245.493 583 245.004C583 244.516 583 244.029 583 243.542C583 243.056 583 242.57 583 242.085C583 241.6 583 241.116 583 240.633C583 240.15 583 239.668 583 239.187C583 238.705 583 238.225 583 237.745C583 237.266 583 236.787 583 236.309C583 235.831 583 235.354 583 234.878C583 234.402 583 233.927 583 233.452C583 232.978 583 232.505 583 232.032C583 231.56 583 231.088 583 230.617C583 230.147 583 229.677 583 229.208C583 228.739 583 228.271 583 227.804C583 227.337 583 226.871 583 226.406C583 225.94 583 225.476 583 225.013C583 224.549 583 224.087 583 223.625C583 223.164 583 222.703 583 222.244C583 221.784 583 221.325 583 220.868C583 220.41 583 219.953 583 219.497C583 219.042 583 218.587 583 218.133C583 217.679 583 217.226 583 216.774C583 216.322 583 215.871 583 215.421C583 214.971 583 214.522 583 214.074C583 213.626 583 213.178 583 212.732C583 212.286 583 211.841 583 211.397C583 210.953 583 210.509 583 210.067C583 209.625 583 209.184 583 208.744C583 208.303 583 207.864 583 207.426C583 206.988 583 206.551 583 206.115C583 205.678 583 205.243 583 204.809C583 204.375 583 203.942 583 203.51C583 203.078 583 202.647 583 202.217C583 201.787 583 201.358 583 200.93C583 200.502 583 200.075 583 199.649C583 199.223 583 198.798 583 198.374C583 197.951 583 197.528 583 197.106C583 196.684 583 196.264 583 195.844C583 195.425 583 195.006 583 194.589C583 194.171 583 193.755 583 193.34C583 192.924 583 192.51 583 192.097C583 191.684 583 191.272 583 190.861C583 190.45 583 190.04 583 189.631C583 189.222 583 188.814 583 188.408C583 188.001 583 187.595 583 187.191C583 186.786 583 186.383 583 185.981C583 185.579 583 185.178 583 184.778C583 184.378 583 183.979 583 183.581C583 183.183 583 182.786 583 182.391C583 181.995 583 181.601 583 181.208C583 180.814 583 180.422 583 180.031C583 179.64 583 179.25 583 178.862C583 178.473 583 178.085 583 177.699C583 177.312 583 176.927 583 176.543C583 176.159 583 175.776 583 175.394C583 175.012 583 174.631 583 174.252C583 173.873 583 173.494 583 173.117C583 172.74 583 172.364 583 171.989C583 171.614 583 171.241 583 170.868C583 170.496 583 170.125 583 169.754C583 169.384 583 169.016 583 168.648C583 168.28 583 167.914 583 167.548C583 167.183 583 166.819 583 166.456C583 166.093 583 165.732 583 165.371C583 165.011 583 164.651 583 164.293C583 163.935 583 163.579 583 163.223C583 162.868 583 162.513 583 162.16C583 161.807 583 161.455 583 161.104C583 160.754 583 160.404 583 160.056C583 159.708 583 159.361 583 159.015C583 158.67 583 158.325 583 157.982C583 157.639 583 157.297 583 156.957C583 156.616 583 156.276 583 155.938C583 155.6 583 155.263 583 154.928C583 154.592 583 154.258 583 153.925C583 153.592 583 153.26 583 152.93C583 152.599 583 152.27 583 151.942C583 151.614 583 151.288 583 150.962C583 150.637 583 150.313 583 149.99C583 149.668 583 149.346 583 149.026C583 148.706 583 148.387 583 148.07C583 147.752 583 147.436 583 147.121C583 146.807 583 146.493 583 146.181C583 145.869 583 145.558 583 145.248C583 144.939 583 144.631 583 144.324C583 144.017 583 143.711 583 143.407C583 143.103 583 142.8 583 142.499C583 142.197 583 141.897 583 141.598C583 141.3 583 141.002 583 140.706C583 140.41 583 140.115 583 139.822C583 139.529 583 139.237 583 138.946C583 138.656 583 138.367 583 138.079C583 137.791 583 137.504 583 137.219C583 136.934 583 136.651 583 136.368C583 136.086 583 135.805 583 135.526C583 135.246 583 134.968 583 134.691C583 134.415 583 134.139 583 133.866C583 133.592 583 133.319 583 133.048C583 132.777 583 132.507 583 132.239C583 131.971 583 131.704 583 131.439C583 131.173 583 130.909 583 130.647C583 130.384 583 130.123 583 129.864C583 129.604 583 129.346 583 129.089C583 128.832 583 128.577 583 128.323C583 128.069 583 127.817 583 127.566C583 127.315 583 127.066 583 126.817C583 126.569 583 126.323 583 126.078C583 125.833 583 125.589 583 125.347C583 125.105 583 124.864 583 124.625C583 124.386 583 124.148 583 123.912H581ZM558 101.141C570.715 101.141 581 111.222 581 123.912H583C583 110.092 571.795 99.1414 558 99.1414V101.141ZM558 886.141C571.791 886.141 583 875.249 583 861.426H581C581 874.113 570.718 884.141 558 884.141V886.141ZM42 884.141C29.2969 884.141 19 873.854 19 861.152H17C17 874.96 28.1935 886.141 42 886.141V884.141ZM42 180.207C28.2084 180.207 17 191.103 17 204.925H19C19 192.238 29.2819 182.207 42 182.207V180.207ZM51.2 1H548.8V-1H51.2V1ZM599 51.2V77.8586H601V51.2H599ZM1 164V51.2H-1V164H1ZM172.103 163H0V165H172.103V163ZM600 76.8586H369.897V78.8586H600V76.8586ZM324.779 88.8923L216.225 151.232L217.221 152.966L325.775 90.6267L324.779 88.8923ZM172.103 165C180.972 165 185.513 165.003 189.942 164.304L189.63 162.329C185.391 162.997 181.032 163 172.103 163V165ZM216.225 151.232C208.482 155.679 204.7 157.847 200.691 159.379L201.405 161.247C205.594 159.647 209.53 157.383 217.221 152.966L216.225 151.232ZM189.942 164.304C193.859 163.687 197.701 162.662 201.405 161.247L200.691 159.379C197.117 160.744 193.41 161.733 189.63 162.329L189.942 164.304ZM548.8 1C557.777 1 564.45 1.00078 569.736 1.43265C575.01 1.86358 578.816 2.7187 582.074 4.3788L582.982 2.59679C579.395 0.76909 575.297 -0.119677 569.899 -0.560704C564.513 -1.00078 557.744 -1 548.8 -1V1ZM601 51.2C601 42.2556 601.001 35.4873 600.561 30.101C600.12 24.7031 599.231 20.6054 597.403 17.0183L595.621 17.9263C597.281 21.1844 598.136 24.9897 598.567 30.2639C598.999 35.5498 599 42.2226 599 51.2H601ZM582.074 4.3788C587.907 7.35087 592.649 12.0933 595.621 17.9263L597.403 17.0183C594.239 10.809 589.191 5.76061 582.982 2.59679L582.074 4.3788ZM369.897 76.8586C361.028 76.8586 356.487 76.8558 352.058 77.5542L352.37 79.5298C356.609 78.8614 360.968 78.8586 369.897 78.8586V76.8586ZM325.775 90.6267C333.518 86.1796 337.3 84.0113 341.309 82.4799L340.595 80.6116C336.406 82.2117 332.47 84.4754 324.779 88.8923L325.775 90.6267ZM352.058 77.5542C348.141 78.1718 344.299 79.1965 340.595 80.6116L341.309 82.4799C344.883 81.1144 348.59 80.1257 352.37 79.5298L352.058 77.5542ZM51.2 -1C42.2557 -1 35.4873 -1.00078 30.101 -0.560704C24.7031 -0.119677 20.6054 0.76909 17.0183 2.59679L17.9263 4.3788C21.1844 2.7187 24.9897 1.86358 30.2639 1.43265C35.5498 1.00078 42.2227 1 51.2 1V-1ZM1 51.2C1 42.2227 1.00078 35.5498 1.43265 30.2639C1.86357 24.9897 2.7187 21.1844 4.3788 17.9263L2.59679 17.0183C0.769089 20.6054 -0.119678 24.7031 -0.560705 30.101C-1.00078 35.4873 -1 42.2557 -1 51.2H1ZM17.0183 2.59679C10.809 5.76061 5.76061 10.809 2.59679 17.0183L4.3788 17.9263C7.35087 12.0933 12.0933 7.35087 17.9263 4.3788L17.0183 2.59679Z" fill="black" mask="url(#path-1-inside-1_8_18)"/>
</svg>
