<svg width="600" height="830" viewBox="0 0 600 830" fill="none" xmlns="http://www.w3.org/2000/svg">
<path d="M0.5 797.141V86.6414H167.977H168.03C178.39 86.6414 183.63 86.6414 188.69 85.8707C193.18 85.1867 197.555 84.0534 201.718 82.4954C206.41 80.7396 210.721 78.2643 219.232 73.3767L219.278 73.3499L323.22 13.6587C331.788 8.73825 336.025 6.30649 340.632 4.58254C344.729 3.04927 349.037 1.9332 353.461 1.25931C358.437 0.50132 363.598 0.5 374.023 0.5H599.5V797.141C599.5 814.538 585.397 828.641 568 828.641H32C14.603 828.641 0.5 814.538 0.5 797.141ZM558 806.641H42C29.021 806.641 18.5 796.131 18.5 783.152V459.666V458.048V456.43V454.812V453.193V451.575V449.957V448.338V446.72V445.102V443.484V441.866V440.249V438.631V437.014V435.397V433.781V432.164V430.549V428.933V427.318V425.704V424.09V422.476V420.863V419.251V417.64V416.029V414.418V412.809V411.2V409.592V407.985V406.378V404.773V403.168V401.565V399.962V398.36V396.759V395.16V393.561V391.964V390.368V388.773V387.179V385.586V383.995V382.405V380.816V379.229V377.643V376.058V374.475V372.894V371.314V369.735V368.159V366.583V365.01V363.438V361.867V360.299V358.732V357.167V355.604V354.043V352.484V350.926V349.371V347.817V346.266V344.716V343.169V341.624V340.081V338.54V337.001V335.464V333.93V332.398V330.868V329.341V327.816V326.294V324.774V323.256V321.741V320.229V318.719V317.211V315.707V314.205V312.705V311.209V309.715V308.224V306.735V305.25V303.767V302.288V300.811V299.337V297.866V296.399V294.934V293.472V292.014V290.559V289.106V287.658V286.212V284.77V283.33V281.895V280.462V279.033V277.608V276.186V274.767V273.352V271.941V270.533V269.128V267.728V266.331V264.938V263.548V262.162V260.78V259.402V258.028V256.658V255.291V253.929V252.57V251.216V249.865V248.519V247.177V245.838V244.505V243.175V241.849V240.528V239.211V237.898V236.59V235.286V233.987V232.692V231.401V230.115V228.834V227.557V226.284V225.017V223.754V222.495V221.242V219.993V218.749V217.509V216.275V215.045V213.821V212.601V211.386V210.177V208.972V207.772V206.578V205.388V204.204V203.025V201.851V200.683V199.519V198.361V197.209V196.061V194.92V193.783V192.652V191.527V190.407V189.292V188.183V187.08V185.983V184.891V183.804V182.724V181.649V180.58V179.517V178.46V177.409V176.364V175.324V174.291V173.263V172.242V171.227V170.218V169.215V168.218V167.227V166.243V165.265V164.293V163.327V162.368V161.415V160.469V159.529V158.596V157.669V156.748V155.834V154.927V154.027V153.133V152.246V151.365V150.491V149.624V148.764V147.911V147.065V146.225V145.393V144.567V143.748V142.937V142.132V141.335V140.545V139.762V138.986V138.217V137.456V136.702V135.955V135.215V134.483V133.758V133.041V132.331V131.629V130.934V130.247V129.567V128.895V128.231V127.574V126.925C18.5 113.954 29.0135 103.707 42 103.707H175.898H175.952C185.687 103.707 190.614 103.707 195.373 102.981C199.596 102.337 203.711 101.27 207.626 99.8035C212.039 98.1503 216.092 95.8197 224.09 91.2217L224.137 91.1947L321.842 35.0208C329.897 30.3898 333.877 28.1028 338.205 26.4815C342.054 25.0393 346.101 23.9895 350.258 23.3556C354.933 22.6427 359.781 22.6414 369.582 22.6414H558C570.985 22.6414 581.5 32.9392 581.5 45.9116V46.6248V47.3469V48.0778V48.8175V49.566V50.3232V51.0891V51.8637V52.647V53.4388V54.2392V55.0481V55.8655V56.6914V57.5257V58.3683V59.2194V60.0787V60.9463V61.8221V62.7062V63.5984V64.4988V65.4073V66.3238V67.2484V68.1809V69.1214V70.0699V71.0262V71.9904V72.9624V73.9422V74.9297V75.9249V76.9278V77.9384V78.9565V79.9822V81.0155V82.0562V83.1044V84.1601V85.2231V86.2935V87.3712V88.4561V89.5484V90.6478V91.7544V92.8682V93.9891V95.117V96.252V97.394V98.5429V99.6988V100.862V102.031V103.208V104.391V105.581V106.778V107.981V109.191V110.408V111.631V112.861V114.097V115.339V116.589V117.844V119.106V120.374V121.649V122.93V124.217V125.51V126.809V128.115V129.426V130.744V132.067V133.397V134.732V136.074V137.421V138.774V140.133V141.497V142.868V144.244V145.625V147.013V148.406V149.804V151.208V152.617V154.032V155.452V156.878V158.309V159.745V161.187V162.633V164.085V165.542V167.004V168.472V169.944V171.421V172.904V174.391V175.883V177.38V178.882V180.389V181.9V183.416V184.937V186.462V187.993V189.527V191.066V192.61V194.159V195.711V197.268V198.83V200.396V201.966V203.54V205.119V206.701V208.288V209.879V211.475V213.074V214.677V216.284V217.896V219.511V221.13V222.752V224.379V226.009V227.643V229.281V230.923V232.568V234.217V235.869V237.525V239.184V240.847V242.513V244.182V245.855V247.531V249.211V250.893V252.579V254.268V255.96V257.656V259.354V261.055V262.76V264.467V266.177V267.89V269.606V271.325V273.046V274.77V276.497V278.227V279.959V281.694V283.432V285.172V286.914V288.659V290.406V292.156V293.908V295.662V297.419V299.178V300.939V302.702V304.468V306.235V308.005V309.776V311.55V313.325V315.103V316.882V318.663V320.446V322.231V324.018V325.806V327.596V329.388V331.181V332.976V334.772V336.57V338.369V340.17V341.972V343.775V345.58V347.386V349.193V351.002V352.811V354.622V356.434V358.247V360.061V361.876V363.692V365.509V367.327V369.145V370.965V372.785V374.606V376.428V378.25V380.073V381.897V383.721V385.546V387.372V389.197V391.023V392.85V394.677V396.504V398.332V400.16V401.988V403.816V405.644V407.473V409.301V411.13V412.959V414.787V416.616V418.444V420.273V422.101V423.929V425.756V427.584V429.411V431.238V433.064V434.89V436.715V438.54V440.365V442.189V444.012V445.835V447.657V449.478V451.298V453.118V454.937V456.755V458.573V460.389V462.204V464.019V465.832V467.644V469.456V471.266V473.075V474.882V476.689V478.494V480.298V482.101V483.902V485.701V487.5V489.297V491.092V492.886V494.678V496.468V498.257V500.045V501.83V503.614V505.396V507.176V508.954V510.73V512.504V514.277V516.047V517.815V519.581V521.345V523.107V524.867V526.625V528.38V530.133V531.883V533.631V535.377V537.12V538.861V540.6V542.335V544.069V545.799V547.527V549.252V550.975V552.695V554.412V556.126V557.837V559.545V561.251V562.953V564.653V566.349V568.042V569.732V571.42V573.103V574.784V576.461V578.135V579.806V581.473V583.137V584.798V586.455V588.109V589.759V591.405V593.048V594.687V596.322V597.954V599.582V601.206V602.827V604.443V606.056V607.664V609.269V610.87V612.467V614.059V615.648V617.232V618.812V620.388V621.96V623.527V625.09V626.649V628.203V629.753V631.298V632.839V634.376V635.907V637.435V638.957V640.475V641.988V643.497V645V646.499V647.993V649.482V650.966V652.445V653.919V655.388V656.852V658.311V659.765V661.214V662.657V664.095V665.528V666.956V668.378V669.795V671.206V672.612V674.013V675.407V676.797V678.181V679.559V680.931V682.298V683.659V685.014V686.363V687.707V689.044V690.376V691.702V693.022V694.335V695.643V696.945V698.24V699.529V700.812V702.089V703.36V704.624V705.882V707.133V708.378V709.617V710.849V712.075V713.294V714.506V715.712V716.911V718.104V719.289V720.468V721.64V722.806V723.964V725.115V726.26V727.398V728.528V729.652V730.768V731.877V732.979V734.074V735.162V736.242V737.315V738.381V739.439V740.49V741.534V742.57V743.598V744.619V745.632V746.638V747.636V748.626V749.609V750.584V751.551V752.51V753.461V754.405V755.34V756.268V757.187V758.099V759.002V759.897V760.784V761.663V762.534V763.396V764.25V765.096V765.933V766.762V767.583V768.395V769.198V769.993V770.78V771.557V772.326V773.087V773.839V774.581V775.316V776.041V776.757V777.465V778.163V778.853V779.534V780.205V780.868V781.521V782.165V782.8V783.426C581.5 796.397 570.987 806.641 558 806.641ZM42 807.641H558C571.523 807.641 582.5 796.965 582.5 783.426V782.8V782.165V781.521V780.868V780.205V779.534V778.853V778.163V777.465V776.757V776.041V775.316V774.581V773.839V773.087V772.326V771.557V770.78V769.993V769.198V768.395V767.583V766.762V765.933V765.096V764.25V763.396V762.534V761.663V760.784V759.897V759.002V758.099V757.187V756.268V755.34V754.405V753.461V752.51V751.551V750.584V749.609V748.626V747.636V746.638V745.632V744.619V743.598V742.57V741.534V740.49V739.439V738.381V737.315V736.242V735.162V734.074V732.979V731.877V730.768V729.652V728.528V727.398V726.26V725.115V723.964V722.806V721.64V720.468V719.289V718.104V716.911V715.712V714.506V713.294V712.075V710.849V709.617V708.378V707.133V705.882V704.624V703.36V702.089V700.812V699.529V698.24V696.945V695.643V694.335V693.022V691.702V690.376V689.044V687.707V686.363V685.014V683.659V682.298V680.931V679.559V678.181V676.797V675.407V674.013V672.612V671.206V669.795V668.378V666.956V665.528V664.095V662.657V661.214V659.765V658.311V656.852V655.388V653.919V652.445V650.966V649.482V647.993V646.499V645V643.497V641.988V640.475V638.957V637.435V635.907V634.376V632.839V631.298V629.753V628.203V626.649V625.09V623.527V621.96V620.388V618.812V617.232V615.648V614.059V612.467V610.87V609.269V607.664V606.056V604.443V602.827V601.206V599.582V597.954V596.322V594.687V593.048V591.405V589.759V588.109V586.455V584.798V583.137V581.473V579.806V578.135V576.461V574.784V573.103V571.42V569.732V568.042V566.349V564.653V562.953V561.251V559.545V557.837V556.126V554.412V552.695V550.975V549.252V547.527V545.799V544.069V542.335V540.6V538.861V537.12V535.377V533.631V531.883V530.133V528.38V526.625V524.867V523.107V521.345V519.581V517.815V516.047V514.277V512.504V510.73V508.954V507.176V505.396V503.614V501.83V500.045V498.257V496.468V494.678V492.886V491.092V489.297V487.5V485.701V483.902V482.101V480.298V478.494V476.689V474.882V473.075V471.266V469.456V467.644V465.832V464.019V462.204V460.389V458.573V456.755V454.937V453.118V451.298V449.478V447.657V445.835V444.012V442.189V440.365V438.54V436.715V434.89V433.064V431.238V429.411V427.584V425.756V423.929V422.101V420.273V418.444V416.616V414.787V412.959V411.13V409.301V407.473V405.644V403.816V401.988V400.16V398.332V396.504V394.677V392.85V391.023V389.197V387.372V385.546V383.721V381.897V380.073V378.25V376.428V374.606V372.785V370.965V369.145V367.327V365.509V363.692V361.876V360.061V358.247V356.434V354.622V352.811V351.002V349.193V347.386V345.58V343.775V341.972V340.17V338.369V336.57V334.772V332.976V331.181V329.388V327.596V325.806V324.018V322.231V320.446V318.663V316.882V315.103V313.325V311.55V309.776V308.005V306.235V304.468V302.702V300.939V299.178V297.419V295.662V293.908V292.156V290.406V288.659V286.914V285.172V283.432V281.694V279.959V278.227V276.497V274.77V273.046V271.325V269.606V267.89V266.177V264.467V262.76V261.055V259.354V257.656V255.96V254.268V252.579V250.893V249.211V247.531V245.855V244.182V242.513V240.847V239.184V237.525V235.869V234.217V232.568V230.923V229.281V227.643V226.009V224.379V222.752V221.13V219.511V217.896V216.284V214.677V213.074V211.475V209.879V208.288V206.701V205.119V203.54V201.966V200.396V198.83V197.268V195.711V194.159V192.61V191.066V189.527V187.993V186.462V184.937V183.416V181.9V180.389V178.882V177.38V175.883V174.391V172.904V171.421V169.944V168.472V167.004V165.542V164.085V162.633V161.187V159.745V158.309V156.878V155.452V154.032V152.617V151.208V149.804V148.406V147.013V145.625V144.244V142.868V141.497V140.133V138.774V137.421V136.074V134.732V133.397V132.067V130.744V129.426V128.115V126.809V125.51V124.217V122.93V121.649V120.374V119.106V117.844V116.589V115.339V114.097V112.861V111.631V110.408V109.191V107.981V106.778V105.581V104.391V103.208V102.031V100.862V99.6988V98.5429V97.394V96.252V95.117V93.9891V92.8682V91.7544V90.6478V89.5484V88.4561V87.3712V86.2935V85.2231V84.1601V83.1044V82.0562V81.0155V79.9822V78.9565V77.9384V76.9278V75.9249V74.9297V73.9422V72.9624V71.9904V71.0262V70.0699V69.1214V68.1809V67.2484V66.3238V65.4073V64.4988V63.5984V62.7062V61.8221V60.9463V60.0787V59.2194V58.3683V57.5257V56.6914V55.8655V55.0481V54.2392V53.4388V52.647V51.8637V51.0891V50.3232V49.566V48.8175V48.0778V47.3469V46.6248V45.9116C582.5 32.3744 571.525 21.6414 558 21.6414H369.582H369.529C359.793 21.6414 354.866 21.6414 350.107 22.3671C345.884 23.0111 341.769 24.0781 337.854 25.545C333.441 27.1983 329.388 29.5289 321.39 34.127L321.343 34.1538L223.638 90.3278C215.583 94.9588 211.603 97.2458 207.275 98.8671C203.426 100.309 199.379 101.359 195.222 101.993C190.547 102.706 185.699 102.707 175.898 102.707H42C28.4768 102.707 17.5 113.386 17.5 126.925V127.574V128.231V128.895V129.567V130.247V130.934V131.629V132.331V133.041V133.758V134.483V135.215V135.955V136.702V137.456V138.217V138.986V139.762V140.545V141.335V142.132V142.937V143.748V144.567V145.393V146.225V147.065V147.911V148.764V149.624V150.491V151.365V152.246V153.133V154.027V154.927V155.834V156.748V157.669V158.596V159.529V160.469V161.415V162.368V163.327V164.293V165.265V166.243V167.227V168.218V169.215V170.218V171.227V172.242V173.263V174.291V175.324V176.364V177.409V178.46V179.517V180.58V181.649V182.724V183.804V184.891V185.983V187.08V188.183V189.292V190.407V191.527V192.652V193.783V194.92V196.061V197.209V198.361V199.519V200.683V201.851V203.025V204.204V205.388V206.578V207.772V208.972V210.177V211.386V212.601V213.821V215.045V216.275V217.509V218.749V219.993V221.242V222.495V223.754V225.017V226.284V227.557V228.834V230.115V231.401V232.692V233.987V235.286V236.59V237.898V239.211V240.528V241.849V243.175V244.505V245.838V247.177V248.519V249.865V251.216V252.57V253.929V255.291V256.658V258.028V259.402V260.78V262.162V263.548V264.938V266.331V267.728V269.128V270.533V271.941V273.352V274.767V276.186V277.608V279.033V280.462V281.895V283.33V284.77V286.212V287.658V289.106V290.559V292.014V293.472V294.934V296.399V297.866V299.337V300.811V302.288V303.767V305.25V306.735V308.224V309.715V311.209V312.705V314.205V315.707V317.211V318.719V320.229V321.741V323.256V324.774V326.294V327.816V329.341V330.868V332.398V333.93V335.464V337.001V338.54V340.081V341.624V343.169V344.716V346.266V347.817V349.371V350.926V352.484V354.043V355.604V357.167V358.732V360.299V361.867V363.438V365.01V366.583V368.159V369.735V371.314V372.894V374.475V376.058V377.643V379.229V380.816V382.405V383.995V385.586V387.179V388.773V390.368V391.964V393.561V395.16V396.759V398.36V399.962V401.565V403.168V404.773V406.378V407.985V409.592V411.2V412.809V414.418V416.029V417.64V419.251V420.863V422.476V424.09V425.704V427.318V428.933V430.549V432.164V433.781V435.397V437.014V438.631V440.249V441.866V443.484V445.102V446.72V448.338V449.957V451.575V453.193V454.812V456.43V458.048V459.666V783.152C17.5 796.684 28.4693 807.641 42 807.641Z" fill="#EE2B34" stroke="black"/>
</svg>
